<?xml version="1.0" encoding="UTF-8" standalone="no"?><!-- Generator: Gravit.io --><svg xmlns="http://www.w3.org/2000/svg" xmlns:xlink="http://www.w3.org/1999/xlink" style="isolation:isolate" viewBox="0 0 800 800" width="800pt" height="800pt"><defs><clipPath id="_clipPath_SVcAxVUSoCLOe0NNGTn7NqLX3hcse4VU"><rect width="800" height="800"/></clipPath></defs><g clip-path="url(#_clipPath_SVcAxVUSoCLOe0NNGTn7NqLX3hcse4VU)"><rect width="800" height="800" style="fill:rgb(65,67,69)"/><g><g><g><g><g/><g><path d=" M 654.356 433.636 C 634.727 459.832 597.443 465.17 571.248 445.541 C 545.053 425.912 539.71 388.628 559.34 362.432 C 578.972 336.234 616.253 330.895 642.451 350.525 C 668.647 370.157 673.989 407.438 654.356 433.636 L 654.356 433.636 Z  M 710.016 300.139 C 704.595 294.43 698.658 289.078 692.15 284.201 C 685.581 279.28 678.706 275.049 671.634 271.426 L 643.141 300.819 C 636.283 298.257 629.249 296.435 622.142 295.382 L 610.598 255.926 C 594.513 255.525 578.452 257.836 563.136 262.763 L 563.771 303.616 C 557.229 306.593 550.969 310.284 545.09 314.64 L 508.954 294.865 C 503.245 300.285 497.893 306.223 493.016 312.73 C 488.095 319.3 483.864 326.175 480.241 333.247 L 509.638 361.743 C 507.075 368.597 505.25 375.632 504.2 382.742 L 464.741 394.286 C 464.34 410.371 466.654 426.428 471.579 441.745 L 512.434 441.11 C 515.411 447.652 519.099 453.915 523.459 459.794 L 503.68 495.93 C 509.104 501.636 515.041 506.988 521.546 511.865 C 528.115 516.789 534.99 521.017 542.062 524.64 L 570.558 495.246 C 577.416 497.809 584.45 499.631 591.557 500.684 L 603.101 540.14 C 619.186 540.541 635.247 538.23 650.564 533.302 L 649.928 492.45 C 656.47 489.473 662.73 485.782 668.609 481.425 L 704.745 501.201 C 710.454 495.78 715.803 489.843 720.68 483.335 C 725.604 476.766 729.832 469.891 733.458 462.819 L 704.062 434.323 C 706.624 427.468 708.446 420.434 709.499 413.324 L 748.955 401.78 C 749.359 385.695 747.045 369.637 742.117 354.321 L 701.265 354.956 C 698.288 348.414 694.597 342.151 690.24 336.271 L 710.016 300.139 L 710.016 300.139 Z  M 149.318 538.835 C 200.105 538.835 242.554 512.304 242.554 459.243 C 242.554 400.875 191.009 387.231 153.108 373.966 C 131.125 366.006 115.586 358.426 115.586 342.508 C 115.586 331.516 124.303 322.041 143.254 322.041 C 160.688 322.041 170.542 328.484 173.574 342.508 C 174.711 348.572 177.744 351.604 183.429 351.604 L 225.12 351.604 C 231.184 351.604 234.974 348.193 234.595 341.75 C 230.047 286.793 187.598 262.916 143.254 262.916 C 98.151 262.916 54.944 289.446 54.944 342.508 C 54.944 400.496 102.32 416.036 139.842 428.922 C 162.962 436.881 181.913 443.704 181.913 459.243 C 181.913 470.234 173.953 479.71 149.318 479.71 C 126.956 479.71 115.586 472.887 112.554 459.243 C 111.417 453.179 108.385 450.147 102.699 450.147 L 61.008 450.147 C 54.944 450.147 51.154 453.558 51.533 460.001 C 56.081 514.957 99.667 538.835 149.318 538.835 L 149.318 538.835 Z  M 420.689 326.589 C 426.753 326.589 430.164 323.178 430.164 317.114 L 430.164 277.697 C 430.164 271.633 426.753 268.222 420.689 268.222 L 333.517 268.222 L 282.35 268.222 C 276.286 268.222 272.875 271.633 272.875 277.697 L 272.875 524.054 C 272.875 530.118 276.286 533.529 282.35 533.529 L 324.041 533.529 C 330.106 533.529 333.517 530.118 333.517 524.054 L 333.517 439.913 L 418.794 439.913 C 424.858 439.913 428.269 436.502 428.269 430.438 L 428.269 391.021 C 428.269 384.957 424.858 381.546 418.794 381.546 L 333.517 381.546 L 333.517 326.589 L 420.689 326.589 L 420.689 326.589 Z " fill-rule="evenodd" fill="rgb(248,245,240)"/></g></g></g></g></g></g></svg>